<?xml version="1.0" standalone="no"?>
<!DOCTYPE svg PUBLIC "-//W3C//DTD SVG 20010904//EN"
 "http://www.w3.org/TR/2001/REC-SVG-20010904/DTD/svg10.dtd">
<svg version="1.0" xmlns="http://www.w3.org/2000/svg"
 width="300.000000pt" height="300.000000pt" viewBox="0 0 300.000000 300.000000"
 preserveAspectRatio="xMidYMid meet">
<metadata>
Created by potrace 1.11, written by Peter Selinger 2001-2013
</metadata>
<g transform="translate(0.000000,300.000000) scale(0.100000,-0.100000)"
fill="#000000" stroke="none">
<path d="M206 2947 c3 -28 7 -425 9 -882 1 -456 6 -859 10 -895 46 -446 240
-671 820 -947 55 -26 178 -87 274 -135 l175 -87 50 25 c28 14 58 29 66 34 8 5
80 41 160 81 80 39 152 75 160 79 8 5 44 23 80 41 352 175 558 334 653 505 46
82 91 215 102 299 4 33 10 71 13 85 2 14 6 381 8 815 2 435 5 845 7 912 l4
122 -136 -5 c-185 -7 -2152 -7 -2323 0 l-137 6 5 -53z"/>
</g>
</svg>
